<svg width="38" height="38" viewBox="0 0 38 38" fill="none" xmlns="http://www.w3.org/2000/svg">
<path d="M0.5 6C0.5 2.96243 2.96243 0.5 6 0.5H37.5V37.5H6C2.96243 37.5 0.5 35.0376 0.5 32V6Z" fill="#F9F9F9"/>
<path d="M0.5 6C0.5 2.96243 2.96243 0.5 6 0.5H37.5V37.5H6C2.96243 37.5 0.5 35.0376 0.5 32V6Z" stroke="#DBDFE9"/>
<path fill-rule="evenodd" clip-rule="evenodd" d="M24.9573 15.7675C25.2809 16.0799 25.2809 16.5865 24.9573 16.8989L19.4325 22.2322C19.1089 22.5446 18.5842 22.5446 18.2605 22.2322L13.0427 17.1952C12.7191 16.8828 12.7191 16.3762 13.0427 16.0638C13.3663 15.7514 13.8911 15.7514 14.2147 16.0638L18.8465 20.5352L23.7853 15.7675C24.1089 15.4551 24.6336 15.4551 24.9573 15.7675Z" fill="#99A1B7"/>
</svg>
