<svg width="327" height="145" viewBox="0 0 327 145" fill="none" xmlns="http://www.w3.org/2000/svg">
<g clip-path="url(#clip0_2_8116)">
<path d="M361.7 -14.5H-54.7V159.5H361.7V-14.5Z" fill="white"/>
<path d="M361.7 -14.5H-54.7V159.5H361.7V-14.5Z" fill="white"/>
<path d="M59.4488 64.9898V53.9033H82.105C83.1171 53.9033 84.0279 53.6428 84.8376 53.1179C85.6473 52.5855 86.287 51.902 86.7606 51.0637C87.2413 50.2179 87.4835 49.2928 87.4835 48.2846C87.4835 47.2273 87.2413 46.2757 86.7606 45.4299C86.287 44.584 85.6473 43.9006 84.8376 43.3757C84.0279 42.8546 83.1171 42.5903 82.105 42.5903H73.9216C70.8347 42.5903 68.0298 41.9559 65.5068 40.6872C62.9802 39.4184 60.9705 37.5568 59.4777 35.0986C57.9921 32.6442 57.2511 29.7027 57.2511 26.2778C57.2511 22.8945 57.9523 19.9643 59.362 17.4872C60.7789 15.0025 62.6947 13.0616 65.1164 11.6721C67.5454 10.2749 70.2275 9.57259 73.1697 9.57259H96.5778V20.6439H74.6011C73.6938 20.6439 72.8589 20.8856 72.0998 21.3689C71.348 21.8447 70.7696 22.4791 70.3648 23.2721C69.96 24.0575 69.7576 24.926 69.7576 25.87C69.7576 26.8291 69.96 27.69 70.3648 28.4528C70.7696 29.2193 71.348 29.8386 72.0998 30.3106C72.8589 30.7864 73.6938 31.0205 74.6011 31.0205H83.1604C86.5509 31.0205 89.4968 31.6964 91.9945 33.0445C94.4994 34.3963 96.4476 36.273 97.8356 38.6783C99.2236 41.0761 99.9176 43.8817 99.9176 47.0913C99.9176 50.8976 99.1947 54.1374 97.7489 56.8033C96.3103 59.4617 94.3801 61.4932 91.9511 62.8903C89.5293 64.2912 86.8545 64.9898 83.9267 64.9898H59.4488Z" fill="#312D42"/>
<path d="M114.775 64.9898C111.179 64.9898 108.37 63.9249 106.346 61.7877C104.329 59.6429 103.324 56.7542 103.324 53.1179V14.4814H115.151V52.408C115.151 53.0348 115.361 53.571 115.788 54.0242C116.221 54.4773 116.742 54.7038 117.349 54.7038H125.836V64.9898H114.775ZM96.9628 34.4341V24.3747H125.836V34.4341H96.9628Z" fill="#312D42"/>
<path d="M187.466 65.9413C184.227 65.9413 181.306 65.4127 178.704 64.3554C176.101 63.2981 173.911 61.7839 172.14 59.809C170.376 57.8266 169.01 55.4893 168.048 52.8007C167.094 50.1046 166.617 47.1744 166.617 44.0101C166.617 39.8942 167.412 36.3032 169.002 33.2408C170.593 30.1822 172.791 27.7807 175.595 26.0361C178.4 24.2954 181.625 23.4231 185.268 23.4231C186.83 23.4231 188.304 23.6346 189.692 24.0575C191.088 24.4804 192.353 25.0997 193.48 25.9153C194.615 26.7309 195.566 27.6938 196.329 28.8002H196.56V7.18613H208.3V43.9346C208.3 48.3676 207.44 52.2419 205.727 55.5648C204.01 58.8877 201.595 61.4516 198.483 63.2528C195.378 65.0426 191.706 65.9413 187.466 65.9413ZM187.466 55.3231C189.277 55.3231 190.853 54.8662 192.194 53.9486C193.531 53.0235 194.554 51.7547 195.259 50.1424C195.971 48.5338 196.329 46.7251 196.329 44.72C196.329 42.7187 195.971 40.9251 195.259 39.3429C194.554 37.7532 193.531 36.4995 192.194 35.582C190.853 34.6568 189.277 34.1924 187.466 34.1924C185.691 34.1924 184.119 34.6568 182.752 35.582C181.393 36.4995 180.356 37.7532 179.644 39.3429C178.939 40.9251 178.588 42.7187 178.588 44.72C178.588 46.7251 178.939 48.5338 179.644 50.1424C180.356 51.7547 181.393 53.0235 182.752 53.9486C184.119 54.8662 185.691 55.3231 187.466 55.3231Z" fill="#312D42"/>
<path d="M224.064 81.0606V65.2314C221.238 64.4876 218.816 63.283 216.792 61.6216C214.768 59.9601 213.224 57.9324 212.165 55.5346C211.103 53.1292 210.575 50.5275 210.575 47.7257V24.3747H222.329V47.333C222.329 48.7641 222.655 50.0895 223.313 51.3054C223.967 52.5137 224.863 53.4766 226.002 54.1903C227.137 54.8964 228.416 55.2476 229.833 55.2476C231.297 55.2476 232.595 54.8964 233.723 54.1903C234.858 53.4766 235.754 52.5137 236.412 51.3054C237.077 50.0895 237.409 48.7641 237.409 47.333V24.3747H249.15V47.7257C249.15 50.5275 248.629 53.1141 247.588 55.4893C246.554 57.8682 245.043 59.8997 243.048 61.5913C241.053 63.2755 238.642 64.4574 235.819 65.1408V81.0606H224.064Z" fill="#312D42"/>
<path d="M60.724 128.579V117.493H83.3802C84.3923 117.493 85.296 117.232 86.0984 116.708C86.9081 116.175 87.5515 115.492 88.0358 114.653C88.5166 113.808 88.7587 112.882 88.7587 111.874C88.7587 110.817 88.5166 109.873 88.0358 109.035C87.5515 108.189 86.9081 107.505 86.0984 106.981C85.296 106.448 84.3923 106.18 83.3802 106.18H75.1968C72.11 106.18 69.3051 105.546 66.7821 104.277C64.2555 103.008 62.2458 101.15 60.753 98.7034C59.2674 96.249 58.5264 93.3037 58.5264 89.8675C58.5264 86.4955 59.2276 83.5691 60.6373 81.092C62.0542 78.6073 63.9699 76.6627 66.3917 75.2618C68.8207 73.8646 71.4991 73.1623 74.4305 73.1623H97.853V84.2488H75.8764C74.9691 84.2488 74.1341 84.4866 73.3751 84.9586C72.6124 85.4344 72.0305 86.0688 71.6256 86.8618C71.2208 87.6585 71.0184 88.5308 71.0184 89.4748C71.0184 90.4226 71.2208 91.2797 71.6256 92.0425C72.0305 92.809 72.6124 93.4321 73.3751 93.9154C74.1341 94.3912 74.9691 94.6253 75.8764 94.6253H84.4357C87.819 94.6253 90.7576 95.3012 93.2553 96.6493C95.7602 97.9898 97.7085 99.8627 99.0965 102.268C100.484 104.666 101.178 107.475 101.178 110.696C101.178 114.495 100.459 117.727 99.0242 120.393C97.5856 123.051 95.6554 125.083 93.2264 126.48C90.7974 127.881 88.1226 128.579 85.202 128.579H60.724Z" fill="#8B7EE0"/>
<path d="M116.028 128.579C112.443 128.579 109.638 127.515 107.614 125.377C105.597 123.233 104.592 120.344 104.592 116.708V78.0711H116.404V115.998C116.404 116.632 116.621 117.176 117.055 117.629C117.489 118.075 118.002 118.294 118.602 118.294H127.089V128.579H116.028ZM98.2302 98.0237V87.9644H127.089V98.0237H98.2302Z" fill="#8B7EE0"/>
<path d="M147.323 129.531C143.332 129.531 139.747 128.61 136.566 126.767C133.385 124.917 130.869 122.383 129.019 119.17C127.175 115.949 126.257 112.327 126.257 108.31C126.257 104.254 127.175 100.629 129.019 97.4347C130.869 94.2439 133.385 91.7102 136.566 89.8373C139.747 87.9568 143.332 87.0128 147.323 87.0128C151.313 87.0128 154.885 87.9568 158.036 89.8373C161.196 91.7102 163.697 94.2439 165.54 97.4347C167.391 100.629 168.316 104.254 168.316 108.31C168.316 112.327 167.391 115.949 165.54 119.17C163.697 122.383 161.188 124.917 158.008 126.767C154.827 128.61 151.263 129.531 147.323 129.531ZM147.323 118.837C149.192 118.837 150.807 118.365 152.166 117.418C153.533 116.473 154.595 115.209 155.347 113.626C156.106 112.037 156.489 110.239 156.489 108.234C156.489 106.282 156.106 104.515 155.347 102.933C154.595 101.354 153.533 100.089 152.166 99.1415C150.807 98.1861 149.192 97.7066 147.323 97.7066C145.451 97.7066 143.824 98.1861 142.436 99.1415C141.048 100.089 139.971 101.354 139.212 102.933C138.46 104.515 138.084 106.282 138.084 108.234C138.084 110.239 138.46 112.037 139.212 113.626C139.971 115.209 141.048 116.473 142.436 117.418C143.824 118.365 145.451 118.837 147.323 118.837Z" fill="#8B7EE0"/>
<path d="M168.767 128.579V99.9269C168.767 96.2339 169.772 93.3339 171.789 91.2269C173.813 89.1123 176.618 88.055 180.204 88.055H191.495V98.0237H183.095C182.379 98.0237 181.769 98.2767 181.259 98.779C180.757 99.2849 180.507 99.9269 180.507 100.712V128.579H168.767Z" fill="#8B7EE0"/>
<path d="M210.827 128.579C206.432 128.579 202.564 127.726 199.231 126.012C195.895 124.29 193.303 121.915 191.453 118.883C189.609 115.854 188.691 112.327 188.691 108.31C188.691 103.88 189.573 100.085 191.337 96.9212C193.108 93.7493 195.472 91.31 198.422 89.5956C201.378 87.8738 204.653 87.0128 208.239 87.0128C212.334 87.0128 215.757 87.9153 218.504 89.7165C221.259 91.5101 223.348 93.9532 224.765 97.042C226.182 100.123 226.89 103.643 226.89 107.6C226.89 108.287 226.85 109.091 226.775 110.016C226.695 110.945 226.605 111.67 226.5 112.191H201.039C201.346 113.562 201.928 114.725 202.788 115.681C203.645 116.628 204.729 117.327 206.041 117.78C207.361 118.226 208.825 118.445 210.437 118.445H222.336V128.579H210.827ZM200.75 104.519H215.526C215.418 103.673 215.266 102.857 215.063 102.072C214.861 101.279 214.543 100.576 214.109 99.9722C213.683 99.3605 213.191 98.8318 212.634 98.3863C212.085 97.9331 211.441 97.5782 210.711 97.3139C209.978 97.0533 209.153 96.9212 208.239 96.9212C207.082 96.9212 206.045 97.1326 205.13 97.5555C204.223 97.9709 203.468 98.5335 202.86 99.2472C202.253 99.9646 201.783 100.784 201.458 101.709C201.129 102.627 200.894 103.563 200.75 104.519Z" fill="#8B7EE0"/>
<path d="M146.363 42.7235C142.373 42.7235 138.921 41.9154 136.011 40.3068C133.108 38.6982 130.871 36.5081 129.302 33.7365C127.741 30.9687 126.96 27.8912 126.96 24.5079V1.15681H138.7V24.1907C138.7 25.6218 139.026 26.9321 139.683 28.1178C140.348 29.3072 141.245 30.2588 142.373 30.9724C143.508 31.6786 144.809 32.0297 146.276 32.0297C147.693 32.0297 148.969 31.6786 150.108 30.9724C151.243 30.2588 152.139 29.3072 152.797 28.1178C153.451 26.9321 153.78 25.6218 153.78 24.1907V1.15681H165.535V24.5079C165.535 27.8912 164.772 30.9687 163.25 33.7365C161.736 36.5081 159.553 38.6982 156.701 40.3068C153.845 41.9154 150.401 42.7235 146.363 42.7235Z" fill="#8B7EE0"/>
<mask id="mask0_2_8116" style="mask-type:luminance" maskUnits="userSpaceOnUse" x="126" y="0" width="41" height="25">
<path d="M126.593 0H166.202V24.7066H126.593V0Z" fill="white"/>
</mask>
<g mask="url(#mask0_2_8116)">
<path d="M126.593 -23.2227H166.202V24.7822H126.593V-23.2227Z" fill="white"/>
</g>
<path d="M146.363 64.8326C142.373 64.8326 138.921 64.0245 136.011 62.4159C133.108 60.8073 130.871 58.6172 129.302 55.8456C127.741 53.0778 126.96 50.0003 126.96 46.617V23.2659H138.7V46.2998C138.7 47.7309 139.026 49.0412 139.683 50.2269C140.348 51.4163 141.245 52.3679 142.373 53.0816C143.508 53.7877 144.809 54.1388 146.276 54.1388C147.693 54.1388 148.969 53.7877 150.108 53.0816C151.243 52.3679 152.139 51.4163 152.797 50.2269C153.451 49.0412 153.78 47.7309 153.78 46.2998V23.2659H165.535V46.617C165.535 50.0003 164.772 53.0778 163.25 55.8456C161.736 58.6172 159.553 60.8073 156.701 62.4159C153.845 64.0245 150.401 64.8326 146.363 64.8326Z" fill="#8B7EE0"/>
<mask id="mask1_2_8116" style="mask-type:luminance" maskUnits="userSpaceOnUse" x="125" y="78" width="44" height="56">
<path d="M125.169 78.6323H168.562V133.744H125.169V78.6323Z" fill="white"/>
</mask>
<g mask="url(#mask1_2_8116)">
<path d="M125.169 78.6323H168.562V133.706H125.169V78.6323Z" fill="white"/>
</g>
<path d="M147.631 108.285C143.641 108.285 140.055 107.364 136.874 105.521C133.694 103.671 131.178 101.137 129.327 97.9238C127.484 94.7028 126.566 91.0816 126.566 87.0639C126.566 83.0084 127.484 79.3834 129.327 76.1889C131.178 72.9981 133.694 70.4644 136.874 68.5915C140.055 66.711 143.641 65.767 147.631 65.767C151.622 65.767 155.193 66.711 158.345 68.5915C161.504 70.4644 164.005 72.9981 165.849 76.1889C167.7 79.3834 168.625 83.0084 168.625 87.0639C168.625 91.0816 167.7 94.7028 165.849 97.9238C164.005 101.137 161.497 103.671 158.316 105.521C155.135 107.364 151.571 108.285 147.631 108.285ZM147.631 97.5915C149.5 97.5915 151.116 97.1195 152.475 96.1717C153.841 95.2277 154.904 93.9627 155.656 92.3806C156.415 90.7909 156.798 88.9935 156.798 86.9884C156.798 85.0362 156.415 83.269 155.656 81.6868C154.904 80.1084 153.841 78.8435 152.475 77.8957C151.116 76.9403 149.5 76.4608 147.631 76.4608C145.759 76.4608 144.132 76.9403 142.744 77.8957C141.356 78.8435 140.279 80.1084 139.52 81.6868C138.768 83.269 138.392 85.0362 138.392 86.9884C138.392 88.9935 138.768 90.7909 139.52 92.3806C140.279 93.9627 141.356 95.2277 142.744 96.1717C144.132 97.1195 145.759 97.5915 147.631 97.5915Z" fill="#8B7EE0"/>
<path d="M147.631 152.549C143.641 152.549 140.055 151.627 136.874 149.785C133.694 147.934 131.178 145.401 129.327 142.187C127.484 138.966 126.566 135.345 126.566 131.327C126.566 127.272 127.484 123.647 129.327 120.452C131.178 117.262 133.694 114.728 136.874 112.855C140.055 110.974 143.641 110.03 147.631 110.03C151.622 110.03 155.193 110.974 158.345 112.855C161.504 114.728 164.005 117.262 165.849 120.452C167.7 123.647 168.625 127.272 168.625 131.327C168.625 135.345 167.7 138.966 165.849 142.187C164.005 145.401 161.497 147.934 158.316 149.785C155.135 151.627 151.571 152.549 147.631 152.549ZM147.631 141.855C149.5 141.855 151.116 141.383 152.475 140.435C153.841 139.491 154.904 138.226 155.656 136.644C156.415 135.054 156.798 133.257 156.798 131.252C156.798 129.3 156.415 127.532 155.656 125.95C154.904 124.372 153.841 123.107 152.475 122.159C151.116 121.204 149.5 120.724 147.631 120.724C145.759 120.724 144.132 121.204 142.744 122.159C141.356 123.107 140.279 124.372 139.52 125.95C138.768 127.532 138.392 129.3 138.392 131.252C138.392 133.257 138.768 135.054 139.52 136.644C140.279 138.226 141.356 139.491 142.744 140.435C144.132 141.383 145.759 141.855 147.631 141.855Z" fill="#8B7EE0"/>
<mask id="mask2_2_8116" style="mask-type:luminance" maskUnits="userSpaceOnUse" x="124" y="65" width="48" height="24">
<path d="M124.963 65.4161H171.352V88.7559H124.963V65.4161Z" fill="white"/>
</mask>
<g mask="url(#mask2_2_8116)">
<path d="M124.963 65.4161H171.389V88.7559H124.963V65.4161Z" fill="white"/>
</g>
<mask id="mask3_2_8116" style="mask-type:luminance" maskUnits="userSpaceOnUse" x="126" y="129" width="44" height="16">
<path d="M126.192 129.352H169.758V145H126.192V129.352Z" fill="white"/>
</mask>
<g mask="url(#mask3_2_8116)">
<path d="M126.608 127.941H169.983V177.412H126.608V127.941Z" fill="white"/>
</g>
</g>
<defs>
<clipPath id="clip0_2_8116">
<rect width="347" height="145" fill="white" transform="translate(-20)"/>
</clipPath>
</defs>
</svg>
