<svg xmlns="http://www.w3.org/2000/svg" xmlns:xlink="http://www.w3.org/1999/xlink" width="500" zoomAndPan="magnify" viewBox="0 0 375 149.999998" height="200" preserveAspectRatio="xMidYMid meet" version="1.0"><defs><g/><clipPath id="69b0e74347"><path d="M 158.421875 0 L 201.226562 0 L 201.226562 25.558594 L 158.421875 25.558594 Z M 158.421875 0 " clip-rule="nonzero"/></clipPath><clipPath id="23967157cb"><path d="M 156.882812 81.34375 L 203.777344 81.34375 L 203.777344 138.355469 L 156.882812 138.355469 Z M 156.882812 81.34375 " clip-rule="nonzero"/></clipPath><clipPath id="905dcb35a6"><path d="M 156.660156 67.671875 L 206.792969 67.671875 L 206.792969 91.816406 L 156.660156 91.816406 Z M 156.660156 67.671875 " clip-rule="nonzero"/></clipPath><clipPath id="f7f6252cf2"><path d="M 157.988281 133.8125 L 205.070312 133.8125 L 205.070312 150 L 157.988281 150 Z M 157.988281 133.8125 " clip-rule="nonzero"/></clipPath></defs><g fill="#312d42" fill-opacity="1"><g transform="translate(80.53149, 67.230806)"><g><path d="M 5.328125 0 L 5.328125 -11.46875 L 29.8125 -11.46875 C 30.90625 -11.46875 31.890625 -11.738281 32.765625 -12.28125 C 33.640625 -12.832031 34.332031 -13.539062 34.84375 -14.40625 C 35.363281 -15.28125 35.625 -16.238281 35.625 -17.28125 C 35.625 -18.375 35.363281 -19.359375 34.84375 -20.234375 C 34.332031 -21.109375 33.640625 -21.816406 32.765625 -22.359375 C 31.890625 -22.898438 30.90625 -23.171875 29.8125 -23.171875 L 20.96875 -23.171875 C 17.632812 -23.171875 14.601562 -23.828125 11.875 -25.140625 C 9.144531 -26.453125 6.972656 -28.378906 5.359375 -30.921875 C 3.753906 -33.460938 2.953125 -36.503906 2.953125 -40.046875 C 2.953125 -43.546875 3.710938 -46.578125 5.234375 -49.140625 C 6.765625 -51.710938 8.835938 -53.71875 11.453125 -55.15625 C 14.078125 -56.601562 16.976562 -57.328125 20.15625 -57.328125 L 45.453125 -57.328125 L 45.453125 -45.875 L 21.703125 -45.875 C 20.722656 -45.875 19.820312 -45.625 19 -45.125 C 18.1875 -44.632812 17.5625 -43.976562 17.125 -43.15625 C 16.6875 -42.34375 16.46875 -41.445312 16.46875 -40.46875 C 16.46875 -39.476562 16.6875 -38.585938 17.125 -37.796875 C 17.5625 -37.003906 18.1875 -36.363281 19 -35.875 C 19.820312 -35.382812 20.722656 -35.140625 21.703125 -35.140625 L 30.953125 -35.140625 C 34.617188 -35.140625 37.800781 -34.441406 40.5 -33.046875 C 43.207031 -31.648438 45.3125 -29.707031 46.8125 -27.21875 C 48.3125 -24.738281 49.0625 -21.835938 49.0625 -18.515625 C 49.0625 -14.578125 48.28125 -11.226562 46.71875 -8.46875 C 45.164062 -5.71875 43.078125 -3.617188 40.453125 -2.171875 C 37.835938 -0.722656 34.945312 0 31.78125 0 Z M 5.328125 0 "/></g></g></g><g fill="#312d42" fill-opacity="1"><g transform="translate(125.49454, 67.230806)"><g><path d="M 20.15625 0 C 16.269531 0 13.234375 -1.101562 11.046875 -3.3125 C 8.867188 -5.53125 7.78125 -8.519531 7.78125 -12.28125 L 7.78125 -52.25 L 20.5625 -52.25 L 20.5625 -13.015625 C 20.5625 -12.367188 20.789062 -11.8125 21.25 -11.34375 C 21.71875 -10.875 22.28125 -10.640625 22.9375 -10.640625 L 32.109375 -10.640625 L 32.109375 0 Z M 0.90625 -31.609375 L 0.90625 -42.015625 L 32.109375 -42.015625 L 32.109375 -31.609375 Z M 0.90625 -31.609375 "/></g></g></g><g fill="#312d42" fill-opacity="1"><g transform="translate(153.926812, 67.230806)"><g/></g></g><g fill="#312d42" fill-opacity="1"><g transform="translate(168.914402, 67.230806)"><g/></g></g><g fill="#312d42" fill-opacity="1"><g transform="translate(183.901992, 67.230806)"><g/></g></g><g fill="#312d42" fill-opacity="1"><g transform="translate(198.893953, 67.230806)"><g><path d="M 25.3125 0.984375 C 21.8125 0.984375 18.65625 0.4375 15.84375 -0.65625 C 13.03125 -1.75 10.664062 -3.316406 8.75 -5.359375 C 6.84375 -7.410156 5.367188 -9.828125 4.328125 -12.609375 C 3.296875 -15.398438 2.78125 -18.429688 2.78125 -21.703125 C 2.78125 -25.960938 3.640625 -29.675781 5.359375 -32.84375 C 7.078125 -36.007812 9.453125 -38.492188 12.484375 -40.296875 C 15.515625 -42.097656 19 -43 22.9375 -43 C 24.625 -43 26.21875 -42.78125 27.71875 -42.34375 C 29.226562 -41.90625 30.59375 -41.265625 31.8125 -40.421875 C 33.039062 -39.578125 34.066406 -38.582031 34.890625 -37.4375 L 35.140625 -37.4375 L 35.140625 -59.796875 L 47.828125 -59.796875 L 47.828125 -21.78125 C 47.828125 -17.195312 46.898438 -13.1875 45.046875 -9.75 C 43.191406 -6.3125 40.582031 -3.660156 37.21875 -1.796875 C 33.863281 0.0546875 29.894531 0.984375 25.3125 0.984375 Z M 25.3125 -10 C 27.269531 -10 28.972656 -10.472656 30.421875 -11.421875 C 31.867188 -12.378906 32.972656 -13.691406 33.734375 -15.359375 C 34.503906 -17.023438 34.890625 -18.894531 34.890625 -20.96875 C 34.890625 -23.039062 34.503906 -24.894531 33.734375 -26.53125 C 32.972656 -28.175781 31.867188 -29.472656 30.421875 -30.421875 C 28.972656 -31.378906 27.269531 -31.859375 25.3125 -31.859375 C 23.394531 -31.859375 21.695312 -31.378906 20.21875 -30.421875 C 18.75 -29.472656 17.628906 -28.175781 16.859375 -26.53125 C 16.097656 -24.894531 15.71875 -23.039062 15.71875 -20.96875 C 15.71875 -18.894531 16.097656 -17.023438 16.859375 -15.359375 C 17.628906 -13.691406 18.75 -12.378906 20.21875 -11.421875 C 21.695312 -10.472656 23.394531 -10 25.3125 -10 Z M 25.3125 -10 "/></g></g></g><g fill="#312d42" fill-opacity="1"><g transform="translate(244.430304, 67.230806)"><g><path d="M 19.328125 16.625 L 19.328125 0.25 C 16.273438 -0.519531 13.65625 -1.765625 11.46875 -3.484375 C 9.28125 -5.203125 7.613281 -7.300781 6.46875 -9.78125 C 5.320312 -12.269531 4.75 -14.960938 4.75 -17.859375 L 4.75 -42.015625 L 17.453125 -42.015625 L 17.453125 -18.265625 C 17.453125 -16.785156 17.804688 -15.414062 18.515625 -14.15625 C 19.222656 -12.90625 20.191406 -11.910156 21.421875 -11.171875 C 22.648438 -10.441406 24.03125 -10.078125 25.5625 -10.078125 C 27.144531 -10.078125 28.546875 -10.441406 29.765625 -11.171875 C 30.992188 -11.910156 31.960938 -12.90625 32.671875 -14.15625 C 33.390625 -15.414062 33.75 -16.785156 33.75 -18.265625 L 33.75 -42.015625 L 46.4375 -42.015625 L 46.4375 -17.859375 C 46.4375 -14.960938 45.875 -12.285156 44.75 -9.828125 C 43.632812 -7.367188 42 -5.265625 39.84375 -3.515625 C 37.6875 -1.773438 35.082031 -0.550781 32.03125 0.15625 L 32.03125 16.625 Z M 19.328125 16.625 "/></g></g></g><g fill="#8b7ee0" fill-opacity="1"><g transform="translate(81.90968, 133.013242)"><g><path d="M 5.328125 0 L 5.328125 -11.46875 L 29.8125 -11.46875 C 30.90625 -11.46875 31.882812 -11.738281 32.75 -12.28125 C 33.625 -12.832031 34.320312 -13.539062 34.84375 -14.40625 C 35.363281 -15.28125 35.625 -16.238281 35.625 -17.28125 C 35.625 -18.375 35.363281 -19.351562 34.84375 -20.21875 C 34.320312 -21.09375 33.625 -21.800781 32.75 -22.34375 C 31.882812 -22.894531 30.90625 -23.171875 29.8125 -23.171875 L 20.96875 -23.171875 C 17.632812 -23.171875 14.601562 -23.828125 11.875 -25.140625 C 9.144531 -26.453125 6.972656 -28.375 5.359375 -30.90625 C 3.753906 -33.445312 2.953125 -36.492188 2.953125 -40.046875 C 2.953125 -43.535156 3.710938 -46.5625 5.234375 -49.125 C 6.765625 -51.695312 8.835938 -53.707031 11.453125 -55.15625 C 14.078125 -56.601562 16.972656 -57.328125 20.140625 -57.328125 L 45.453125 -57.328125 L 45.453125 -45.859375 L 21.703125 -45.859375 C 20.722656 -45.859375 19.820312 -45.613281 19 -45.125 C 18.175781 -44.632812 17.546875 -43.976562 17.109375 -43.15625 C 16.671875 -42.332031 16.453125 -41.429688 16.453125 -40.453125 C 16.453125 -39.472656 16.671875 -38.585938 17.109375 -37.796875 C 17.546875 -37.003906 18.175781 -36.359375 19 -35.859375 C 19.820312 -35.367188 20.722656 -35.125 21.703125 -35.125 L 30.953125 -35.125 C 34.609375 -35.125 37.785156 -34.425781 40.484375 -33.03125 C 43.191406 -31.644531 45.296875 -29.707031 46.796875 -27.21875 C 48.296875 -24.738281 49.046875 -21.832031 49.046875 -18.5 C 49.046875 -14.570312 48.269531 -11.226562 46.71875 -8.46875 C 45.164062 -5.71875 43.078125 -3.617188 40.453125 -2.171875 C 37.828125 -0.722656 34.9375 0 31.78125 0 Z M 5.328125 0 "/></g></g></g><g fill="#8b7ee0" fill-opacity="1"><g transform="translate(126.864198, 133.013242)"><g><path d="M 20.140625 0 C 16.265625 0 13.234375 -1.101562 11.046875 -3.3125 C 8.867188 -5.53125 7.78125 -8.519531 7.78125 -12.28125 L 7.78125 -52.25 L 20.546875 -52.25 L 20.546875 -13.015625 C 20.546875 -12.359375 20.78125 -11.796875 21.25 -11.328125 C 21.71875 -10.867188 22.273438 -10.640625 22.921875 -10.640625 L 32.09375 -10.640625 L 32.09375 0 Z M 0.90625 -31.609375 L 0.90625 -42.015625 L 32.09375 -42.015625 L 32.09375 -31.609375 Z M 0.90625 -31.609375 "/></g></g></g><g fill="#8b7ee0" fill-opacity="1"><g transform="translate(155.277615, 133.013242)"><g><path d="M 25.546875 0.984375 C 21.234375 0.984375 17.359375 0.03125 13.921875 -1.875 C 10.484375 -3.789062 7.765625 -6.410156 5.765625 -9.734375 C 3.773438 -13.066406 2.78125 -16.8125 2.78125 -20.96875 C 2.78125 -25.164062 3.773438 -28.914062 5.765625 -32.21875 C 7.765625 -35.519531 10.484375 -38.140625 13.921875 -40.078125 C 17.359375 -42.023438 21.234375 -43 25.546875 -43 C 29.859375 -43 33.71875 -42.023438 37.125 -40.078125 C 40.539062 -38.140625 43.242188 -35.519531 45.234375 -32.21875 C 47.234375 -28.914062 48.234375 -25.164062 48.234375 -20.96875 C 48.234375 -16.8125 47.234375 -13.066406 45.234375 -9.734375 C 43.242188 -6.410156 40.53125 -3.789062 37.09375 -1.875 C 33.65625 0.03125 29.804688 0.984375 25.546875 0.984375 Z M 25.546875 -10.078125 C 27.566406 -10.078125 29.3125 -10.566406 30.78125 -11.546875 C 32.257812 -12.523438 33.40625 -13.832031 34.21875 -15.46875 C 35.039062 -17.113281 35.453125 -18.972656 35.453125 -21.046875 C 35.453125 -23.066406 35.039062 -24.894531 34.21875 -26.53125 C 33.40625 -28.164062 32.257812 -29.472656 30.78125 -30.453125 C 29.3125 -31.441406 27.566406 -31.9375 25.546875 -31.9375 C 23.523438 -31.9375 21.765625 -31.441406 20.265625 -30.453125 C 18.765625 -29.472656 17.601562 -28.164062 16.78125 -26.53125 C 15.96875 -24.894531 15.5625 -23.066406 15.5625 -21.046875 C 15.5625 -18.972656 15.96875 -17.113281 16.78125 -15.46875 C 17.601562 -13.832031 18.765625 -12.523438 20.265625 -11.546875 C 21.765625 -10.566406 23.523438 -10.078125 25.546875 -10.078125 Z M 25.546875 -10.078125 "/></g></g></g><g fill="#8b7ee0" fill-opacity="1"><g transform="translate(199.577049, 133.013242)"><g><path d="M 4.421875 0 L 4.421875 -29.640625 C 4.421875 -33.460938 5.507812 -36.460938 7.6875 -38.640625 C 9.875 -40.828125 12.90625 -41.921875 16.78125 -41.921875 L 28.984375 -41.921875 L 28.984375 -31.609375 L 19.90625 -31.609375 C 19.132812 -31.609375 18.472656 -31.347656 17.921875 -30.828125 C 17.378906 -30.304688 17.109375 -29.640625 17.109375 -28.828125 L 17.109375 0 Z M 4.421875 0 "/></g></g></g><g fill="#8b7ee0" fill-opacity="1"><g transform="translate(222.749716, 133.013242)"><g><path d="M 26.703125 0 C 21.953125 0 17.773438 -0.882812 14.171875 -2.65625 C 10.566406 -4.4375 7.765625 -6.894531 5.765625 -10.03125 C 3.773438 -13.164062 2.78125 -16.8125 2.78125 -20.96875 C 2.78125 -25.550781 3.734375 -29.476562 5.640625 -32.75 C 7.554688 -36.03125 10.109375 -38.554688 13.296875 -40.328125 C 16.492188 -42.109375 20.03125 -43 23.90625 -43 C 28.332031 -43 32.03125 -42.066406 35 -40.203125 C 37.976562 -38.347656 40.234375 -35.820312 41.765625 -32.625 C 43.296875 -29.4375 44.0625 -25.796875 44.0625 -21.703125 C 44.0625 -20.992188 44.019531 -20.160156 43.9375 -19.203125 C 43.851562 -18.242188 43.753906 -17.492188 43.640625 -16.953125 L 16.125 -16.953125 C 16.457031 -15.535156 17.085938 -14.332031 18.015625 -13.34375 C 18.941406 -12.363281 20.113281 -11.640625 21.53125 -11.171875 C 22.957031 -10.710938 24.539062 -10.484375 26.28125 -10.484375 L 39.140625 -10.484375 L 39.140625 0 Z M 15.8125 -24.890625 L 31.78125 -24.890625 C 31.664062 -25.765625 31.5 -26.609375 31.28125 -27.421875 C 31.0625 -28.242188 30.71875 -28.96875 30.25 -29.59375 C 29.789062 -30.226562 29.257812 -30.773438 28.65625 -31.234375 C 28.0625 -31.703125 27.367188 -32.070312 26.578125 -32.34375 C 25.785156 -32.613281 24.894531 -32.75 23.90625 -32.75 C 22.65625 -32.75 21.535156 -32.53125 20.546875 -32.09375 C 19.566406 -31.664062 18.75 -31.082031 18.09375 -30.34375 C 17.4375 -29.601562 16.929688 -28.753906 16.578125 -27.796875 C 16.222656 -26.847656 15.96875 -25.878906 15.8125 -24.890625 Z M 15.8125 -24.890625 "/></g></g></g><g fill="#8b7ee0" fill-opacity="1"><g transform="translate(154.068525, 43.212321)"><g><path d="M 25.71875 0.984375 C 21.40625 0.984375 17.675781 0.148438 14.53125 -1.515625 C 11.394531 -3.179688 8.976562 -5.445312 7.28125 -8.3125 C 5.59375 -11.175781 4.75 -14.359375 4.75 -17.859375 L 4.75 -42.015625 L 17.4375 -42.015625 L 17.4375 -18.1875 C 17.4375 -16.707031 17.789062 -15.351562 18.5 -14.125 C 19.21875 -12.894531 20.1875 -11.910156 21.40625 -11.171875 C 22.632812 -10.441406 24.039062 -10.078125 25.625 -10.078125 C 27.15625 -10.078125 28.535156 -10.441406 29.765625 -11.171875 C 30.992188 -11.910156 31.960938 -12.894531 32.671875 -14.125 C 33.378906 -15.351562 33.734375 -16.707031 33.734375 -18.1875 L 33.734375 -42.015625 L 46.4375 -42.015625 L 46.4375 -17.859375 C 46.4375 -14.359375 45.613281 -11.175781 43.96875 -8.3125 C 42.332031 -5.445312 39.972656 -3.179688 36.890625 -1.515625 C 33.804688 0.148438 30.082031 0.984375 25.71875 0.984375 Z M 25.71875 0.984375 "/></g></g></g><g clip-path="url(#69b0e74347)"><path fill="#ffffff" d="M 158.421875 -24.023438 L 201.226562 -24.023438 L 201.226562 25.636719 L 158.421875 25.636719 Z M 158.421875 -24.023438 " fill-opacity="1" fill-rule="nonzero"/></g><g fill="#8b7ee0" fill-opacity="1"><g transform="translate(154.068525, 66.083838)"><g><path d="M 25.71875 0.984375 C 21.40625 0.984375 17.675781 0.148438 14.53125 -1.515625 C 11.394531 -3.179688 8.976562 -5.445312 7.28125 -8.3125 C 5.59375 -11.175781 4.75 -14.359375 4.75 -17.859375 L 4.75 -42.015625 L 17.4375 -42.015625 L 17.4375 -18.1875 C 17.4375 -16.707031 17.789062 -15.351562 18.5 -14.125 C 19.21875 -12.894531 20.1875 -11.910156 21.40625 -11.171875 C 22.632812 -10.441406 24.039062 -10.078125 25.625 -10.078125 C 27.15625 -10.078125 28.535156 -10.441406 29.765625 -11.171875 C 30.992188 -11.910156 31.960938 -12.894531 32.671875 -14.125 C 33.378906 -15.351562 33.734375 -16.707031 33.734375 -18.1875 L 33.734375 -42.015625 L 46.4375 -42.015625 L 46.4375 -17.859375 C 46.4375 -14.359375 45.613281 -11.175781 43.96875 -8.3125 C 42.332031 -5.445312 39.972656 -3.179688 36.890625 -1.515625 C 33.804688 0.148438 30.082031 0.984375 25.71875 0.984375 Z M 25.71875 0.984375 "/></g></g></g><g clip-path="url(#23967157cb)"><path fill="#ffffff" d="M 156.882812 81.34375 L 203.777344 81.34375 L 203.777344 138.316406 L 156.882812 138.316406 Z M 156.882812 81.34375 " fill-opacity="1" fill-rule="nonzero"/></g><g fill="#8b7ee0" fill-opacity="1"><g transform="translate(155.610918, 111.034876)"><g><path d="M 25.546875 0.984375 C 21.234375 0.984375 17.359375 0.03125 13.921875 -1.875 C 10.484375 -3.789062 7.765625 -6.410156 5.765625 -9.734375 C 3.773438 -13.066406 2.78125 -16.8125 2.78125 -20.96875 C 2.78125 -25.164062 3.773438 -28.914062 5.765625 -32.21875 C 7.765625 -35.519531 10.484375 -38.140625 13.921875 -40.078125 C 17.359375 -42.023438 21.234375 -43 25.546875 -43 C 29.859375 -43 33.71875 -42.023438 37.125 -40.078125 C 40.539062 -38.140625 43.242188 -35.519531 45.234375 -32.21875 C 47.234375 -28.914062 48.234375 -25.164062 48.234375 -20.96875 C 48.234375 -16.8125 47.234375 -13.066406 45.234375 -9.734375 C 43.242188 -6.410156 40.53125 -3.789062 37.09375 -1.875 C 33.65625 0.03125 29.804688 0.984375 25.546875 0.984375 Z M 25.546875 -10.078125 C 27.566406 -10.078125 29.3125 -10.566406 30.78125 -11.546875 C 32.257812 -12.523438 33.40625 -13.832031 34.21875 -15.46875 C 35.039062 -17.113281 35.453125 -18.972656 35.453125 -21.046875 C 35.453125 -23.066406 35.039062 -24.894531 34.21875 -26.53125 C 33.40625 -28.164062 32.257812 -29.472656 30.78125 -30.453125 C 29.3125 -31.441406 27.566406 -31.9375 25.546875 -31.9375 C 23.523438 -31.9375 21.765625 -31.441406 20.265625 -30.453125 C 18.765625 -29.472656 17.601562 -28.164062 16.78125 -26.53125 C 15.96875 -24.894531 15.5625 -23.066406 15.5625 -21.046875 C 15.5625 -18.972656 15.96875 -17.113281 16.78125 -15.46875 C 17.601562 -13.832031 18.765625 -12.523438 20.265625 -11.546875 C 21.765625 -10.566406 23.523438 -10.078125 25.546875 -10.078125 Z M 25.546875 -10.078125 "/></g></g></g><g fill="#8b7ee0" fill-opacity="1"><g transform="translate(155.610918, 156.824574)"><g><path d="M 25.546875 0.984375 C 21.234375 0.984375 17.359375 0.03125 13.921875 -1.875 C 10.484375 -3.789062 7.765625 -6.410156 5.765625 -9.734375 C 3.773438 -13.066406 2.78125 -16.8125 2.78125 -20.96875 C 2.78125 -25.164062 3.773438 -28.914062 5.765625 -32.21875 C 7.765625 -35.519531 10.484375 -38.140625 13.921875 -40.078125 C 17.359375 -42.023438 21.234375 -43 25.546875 -43 C 29.859375 -43 33.71875 -42.023438 37.125 -40.078125 C 40.539062 -38.140625 43.242188 -35.519531 45.234375 -32.21875 C 47.234375 -28.914062 48.234375 -25.164062 48.234375 -20.96875 C 48.234375 -16.8125 47.234375 -13.066406 45.234375 -9.734375 C 43.242188 -6.410156 40.53125 -3.789062 37.09375 -1.875 C 33.65625 0.03125 29.804688 0.984375 25.546875 0.984375 Z M 25.546875 -10.078125 C 27.566406 -10.078125 29.3125 -10.566406 30.78125 -11.546875 C 32.257812 -12.523438 33.40625 -13.832031 34.21875 -15.46875 C 35.039062 -17.113281 35.453125 -18.972656 35.453125 -21.046875 C 35.453125 -23.066406 35.039062 -24.894531 34.21875 -26.53125 C 33.40625 -28.164062 32.257812 -29.472656 30.78125 -30.453125 C 29.3125 -31.441406 27.566406 -31.9375 25.546875 -31.9375 C 23.523438 -31.9375 21.765625 -31.441406 20.265625 -30.453125 C 18.765625 -29.472656 17.601562 -28.164062 16.78125 -26.53125 C 15.96875 -24.894531 15.5625 -23.066406 15.5625 -21.046875 C 15.5625 -18.972656 15.96875 -17.113281 16.78125 -15.46875 C 17.601562 -13.832031 18.765625 -12.523438 20.265625 -11.546875 C 21.765625 -10.566406 23.523438 -10.078125 25.546875 -10.078125 Z M 25.546875 -10.078125 "/></g></g></g><g clip-path="url(#905dcb35a6)"><path fill="#ffffff" d="M 156.660156 67.671875 L 206.832031 67.671875 L 206.832031 91.816406 L 156.660156 91.816406 Z M 156.660156 67.671875 " fill-opacity="1" fill-rule="nonzero"/></g><g clip-path="url(#f7f6252cf2)"><path fill="#ffffff" d="M 157.988281 133.8125 L 205.070312 133.8125 L 205.070312 183.46875 L 157.988281 183.46875 Z M 157.988281 133.8125 " fill-opacity="1" fill-rule="nonzero"/></g></svg>