<svg width="149" height="155" viewBox="0 0 149 155" fill="none" xmlns="http://www.w3.org/2000/svg">
<rect width="149" height="155" fill="white"/>
<path d="M66.8904 82.1041C68.0274 78.0323 69.3832 74.6203 70.9794 71.8223C72.5757 69.0244 74.6749 65.817 77.2552 62.2002C79.1357 59.516 80.6227 57.2868 81.6941 55.558C82.7656 53.8292 83.6622 51.8957 84.3838 49.7574C85.0835 47.6192 85.4334 45.3445 85.4334 42.8878V42.8195C85.4334 38.5658 84.3838 35.2674 82.2845 32.9017C80.1853 30.5587 77.2552 29.3759 73.4941 29.3759C69.6893 29.3759 66.7373 30.8317 64.6381 33.7433C62.5389 36.655 61.4674 40.7723 61.4237 46.1179V46.1861H46.8167V46.1179C47.0135 39.6576 48.1724 34.13 50.3372 29.5578C52.502 24.9856 55.5415 21.4825 59.4338 19.0941C63.3479 16.7056 67.9837 15.5 73.3411 15.5C78.9389 15.5 83.7496 16.5691 87.7294 18.7301C91.731 20.8911 94.7705 24.0075 96.8697 28.102C98.9689 32.1965 100.019 37.11 100.019 42.8878V42.956C100.019 46.4363 99.5812 49.5527 98.7065 52.3506C97.8318 55.1486 96.7822 57.5598 95.5358 59.6298C94.2894 61.677 92.5838 64.1793 90.419 67.1137C88.0574 70.2528 86.155 73.028 84.7118 75.4392C83.2467 77.8731 82.0222 80.7848 81.0381 84.1741C80.0541 87.5862 79.5512 91.4988 79.5512 95.9572H65.1629C65.2066 90.7936 65.7533 86.1759 66.8904 82.1041ZM64.8349 107.672H79.9448V123.39H64.8349V107.672Z" fill="#F4F6F9"/>
<path d="M117.403 119.501C115.435 113.905 116.528 111.539 115.763 105.716C114.932 99.4604 113.051 93.0457 110.558 87.4044C109.705 85.4708 108.24 83.1506 106.841 81.4901C100.828 74.3929 95.2952 68.0236 86.5048 63.9064V63.9519C86.3955 63.315 86.2861 62.678 86.1549 62.0638C86.9421 61.2677 87.9043 60.5625 88.8664 59.8801C90.4846 58.72 92.0808 57.5599 93.699 56.4225C94.0926 56.1496 94.4862 55.8538 94.7048 55.4899C94.9235 55.1259 94.9454 54.6482 94.6174 54.398C94.3768 54.216 94.0051 54.1933 93.6552 54.1478C93.1304 54.1023 92.5838 54.0568 92.059 54.1705C91.5341 54.2615 91.0312 54.489 90.572 54.7392C88.6696 55.6946 86.964 56.832 85.3021 58.0376C84.7773 55.7174 84.1869 53.2834 83.5746 50.3717C83.5746 50.3262 83.5746 50.3035 83.5965 50.258C84.7117 50.5537 85.9581 50.3717 86.8765 49.6438C88.3416 48.5065 88.8227 46.1862 87.9261 44.5257C87.2045 43.1836 85.652 42.3874 84.1869 42.5239C84.34 35.04 82.7874 30.6043 78.6109 30.809C76.7304 30.7635 74.8498 31.628 73.2973 32.7653C68.6396 36.1774 64.0695 39.726 59.9367 42.7286C59.9367 42.7286 64.7692 45.7313 67.1527 47.1871C67.1527 47.1871 65.1191 55.0349 63.4791 60.4033C63.4135 60.4033 63.3698 60.3805 63.3042 60.3805C62.342 60.335 61.2705 60.8355 61.0081 61.6544C60.8113 62.2913 61.1175 62.9965 61.5767 63.5197C61.7079 63.6789 61.8609 63.8154 62.014 63.9519C52.8081 71.0263 46.5979 74.6659 41.2187 83.9923C39.2507 87.3816 35.0086 93.9783 33.784 97.6406C32.2971 102.122 30.6789 106.444 32.9093 111.289C32.1659 111.403 31.0288 111.812 30.8976 112.495C30.7445 113.245 30.9632 114.019 31.1819 114.747C31.4224 115.588 31.7504 116.521 32.6032 116.93C31.6848 117.454 31.16 118.477 31.2912 119.455C31.4224 120.433 32.2315 121.298 33.2592 121.594C32.0784 122.321 32.3189 124.096 33.3685 124.96C34.44 125.825 35.9707 126.007 37.392 126.12C38.8134 126.234 40.3222 126.302 41.5249 127.03L41.6779 126.825C41.6998 127.94 42.6182 128.873 43.6241 129.532C48.5222 132.785 56.7441 131.83 61.7079 134.992L62.2108 135.56C63.8071 137.494 66.0812 139.291 68.749 139.268C70.6077 139.245 72.3133 138.358 73.8439 137.403C76.3586 135.811 78.6765 133.877 80.4477 131.625C85.324 133.058 89.4131 130.92 94.4643 132.171C102.555 134.173 114.057 131.693 115.697 128.645C117.293 125.802 118.452 122.481 117.403 119.501Z" fill="white"/>
<path d="M48.4785 36.3592C48.6972 37.9287 48.7409 39.5438 48.8284 41.1361C48.8502 41.5683 48.1942 41.5683 48.1724 41.1361C48.0849 39.6575 48.0412 38.1562 47.8663 36.7004C47.7351 35.5858 47.4508 34.3802 46.751 33.493C46.1606 32.7651 45.2641 32.2192 44.3238 32.1964C43.4054 32.1964 42.5308 32.8106 42.3996 33.7888C42.334 34.2437 42.487 34.7214 42.8588 34.9943C43.1868 35.2446 43.646 35.3583 44.0177 35.1308C44.3894 34.9261 44.7174 35.5175 44.3457 35.7223C43.1649 36.3819 41.7217 35.3355 41.7217 33.9935C41.7217 32.7424 42.7057 31.696 43.8865 31.514C45.0017 31.3548 46.1606 31.878 46.9478 32.6741C47.8881 33.6523 48.3036 35.0398 48.4785 36.3592ZM52.349 45.9586C52.3271 45.9586 52.349 45.9586 52.349 45.9586C52.3271 45.9586 52.3271 45.9586 52.349 45.9586C52.3271 45.9358 52.3271 45.9358 52.3271 45.9358C52.3271 45.9585 52.3271 45.9586 52.349 45.9586ZM52.2615 46.2543C52.2615 46.2315 52.2615 46.2315 52.2615 46.2543V46.2543ZM53.005 46.0268C52.9831 46.459 52.7207 46.7775 52.3927 47.0277C52.3271 47.0732 52.2615 47.1187 52.1959 47.1642C52.1084 47.2324 51.9991 47.2552 51.8897 47.2324C51.846 47.2097 51.8023 47.1869 51.7585 47.1642C51.6055 47.0504 51.4961 46.8912 51.4305 46.6865C51.3431 46.4135 51.3868 46.0495 51.5836 45.8221C51.5617 45.7538 51.5617 45.6856 51.5836 45.6174C51.6492 45.4126 51.8023 45.2534 51.9991 45.1852C52.174 45.1397 52.3489 45.1624 52.502 45.2306C52.7863 45.3899 53.0268 45.6856 53.005 46.0268ZM52.0428 46.5272C52.0428 46.5045 52.0428 46.5272 52.0428 46.5272C52.0428 46.5045 52.0428 46.5045 52.0428 46.5272ZM52.0647 46.2543C52.0865 46.2315 52.1084 46.2088 52.0647 46.2543V46.2543ZM52.1959 45.7993C52.1959 45.8221 52.1959 45.8221 52.1959 45.7993C52.174 45.8221 52.174 45.8221 52.1959 45.7993C52.1959 45.8221 52.1959 45.8221 52.1959 45.7993ZM52.3052 46.186C52.3052 46.1633 52.3271 46.1405 52.3271 46.1405C52.3271 46.1178 52.349 46.095 52.349 46.0495C52.349 46.0268 52.349 46.0041 52.349 45.9813L52.3271 45.9586V45.9813C52.3052 45.9586 52.3052 45.9585 52.2833 45.9358C52.2833 45.9358 52.2833 45.9358 52.2615 45.9358C52.2396 45.9358 52.2177 45.9131 52.2177 45.9131H52.1959C52.1959 45.9131 52.1959 45.9131 52.174 45.9131C52.174 45.9585 52.1959 45.9813 52.1959 46.0268C52.1959 46.095 52.1521 46.2088 52.1084 46.277C52.0865 46.2998 52.0647 46.3225 52.0428 46.3225L52.0209 46.3453V46.368C52.0209 46.3907 52.0209 46.3908 52.0209 46.4135C52.0209 46.4363 52.0209 46.4817 52.0209 46.5045C52.0209 46.5045 52.0209 46.5045 52.0209 46.5272C52.0428 46.5045 52.1084 46.459 52.0209 46.5272C52.0428 46.5045 52.0428 46.5045 52.0647 46.4817C52.1084 46.459 52.1303 46.4135 52.174 46.3907C52.1959 46.368 52.1959 46.368 52.2177 46.3453L52.2396 46.3225C52.2396 46.3225 52.2396 46.3453 52.2177 46.3453C52.2615 46.2543 52.2833 46.2088 52.3052 46.186ZM116.484 56.5361C116.069 56.4223 115.894 57.082 116.309 57.1957C117.403 57.4914 117.862 58.8108 117.556 59.8572C117.206 61.0628 116.091 61.9272 114.975 62.2911C113.773 62.6778 112.439 62.5641 111.324 61.9272C110.274 61.3357 109.268 60.4031 108 60.3576C106.928 60.3121 105.704 60.9718 105.638 62.2001C105.616 62.6323 106.272 62.6323 106.294 62.2001C106.36 61.1082 107.781 60.9035 108.568 61.1537C109.224 61.3585 109.793 61.7907 110.361 62.1546C110.952 62.5186 111.542 62.8598 112.22 63.0418C113.488 63.383 114.866 63.2238 116.025 62.5868C117.096 62.0182 118.059 60.9718 118.277 59.6752C118.496 58.3558 117.796 56.8773 116.484 56.5361ZM102.271 63.7242C102.271 63.7015 102.271 63.7242 102.271 63.7242V63.7242ZM102.861 63.292C102.971 63.5422 102.992 63.8379 102.839 64.0882C102.73 64.2701 102.555 64.3839 102.336 64.4294C102.14 64.4749 101.921 64.4521 101.746 64.3384L101.724 64.3156C101.44 64.4294 101.068 64.3384 100.893 64.0427C100.871 63.9972 100.828 63.9289 100.828 63.8834C100.806 63.7924 100.828 63.7015 100.871 63.6105C100.915 63.4967 100.959 63.383 101.046 63.292C101.199 63.0645 101.396 62.9053 101.659 62.7916C102.074 62.5868 102.643 62.8143 102.861 63.292ZM101.921 63.383C101.899 63.383 101.877 63.4057 101.855 63.4057H101.833H101.812C101.833 63.4057 101.855 63.4285 101.899 63.4285C102.03 63.4512 102.118 63.5877 102.14 63.7242H102.161H102.183H102.205H102.227C102.227 63.7242 102.249 63.7242 102.271 63.7015C102.271 63.7015 102.271 63.7014 102.271 63.6787V63.656C102.271 63.656 102.271 63.656 102.271 63.6332V63.6105V63.6332V63.6105C102.271 63.6105 102.271 63.6105 102.271 63.5877V63.565C102.249 63.5422 102.249 63.5195 102.227 63.4967C102.227 63.4967 102.227 63.4967 102.205 63.474C102.183 63.4512 102.161 63.4285 102.14 63.4285C102.14 63.4285 102.14 63.4285 102.118 63.4285C102.096 63.4285 102.074 63.4057 102.052 63.383C102.074 63.383 102.096 63.383 102.052 63.383H102.03H102.008C101.987 63.383 101.899 63.3603 101.965 63.3603C101.986 63.3603 102.008 63.383 101.965 63.3603C101.943 63.3603 101.943 63.3603 101.921 63.3603C101.943 63.383 101.943 63.383 101.921 63.383C101.921 63.383 101.899 63.383 101.921 63.383C101.921 63.383 101.899 63.383 101.921 63.383ZM102.293 63.6787V63.656C102.271 63.656 102.271 63.6787 102.293 63.6787ZM102.271 63.6332C102.271 63.6105 102.271 63.6332 102.271 63.6332V63.6105V63.6332ZM101.943 63.383H101.921C101.943 63.4057 101.943 63.383 101.943 63.383ZM112.198 30.6269C112.111 29.7625 111.805 28.8981 111.214 28.2611C110.689 27.7152 109.99 27.3513 109.268 27.2148C108.481 27.0555 107.606 27.1465 106.907 27.6015C106.294 27.9882 105.332 29.1938 106.207 29.808C106.557 30.0582 106.885 29.4667 106.535 29.2165C106.36 29.1028 106.819 28.5341 106.928 28.4204C107.147 28.2156 107.409 28.0564 107.694 27.9427C108.306 27.738 108.962 27.7607 109.552 27.9654C110.165 28.1701 110.711 28.5569 111.061 29.1256C111.499 29.8535 111.63 30.7406 111.52 31.5595C111.28 33.4248 110.055 34.9034 108.568 35.836C106.885 36.9051 104.982 37.2918 103.145 37.9742C102.161 38.3382 101.177 38.8614 100.543 39.7485C99.9529 40.5674 99.6249 41.6138 99.931 42.6147C100.062 43.0241 100.696 42.8422 100.565 42.4327C100.259 41.4546 100.718 40.4537 101.396 39.7713C102.161 38.9979 103.233 38.6339 104.217 38.3382C106.207 37.7013 108.24 37.0871 109.88 35.6995C111.324 34.5394 112.373 32.6059 112.198 30.6269ZM99.45 46.2543C99.3188 46.2543 99.1876 46.2543 99.0564 46.2543C99.0126 46.2543 98.9689 46.2543 98.9252 46.277C98.8814 46.2998 98.8596 46.3225 98.8158 46.3453C98.794 46.368 98.7721 46.4135 98.7502 46.459C98.7284 46.5045 98.7284 46.55 98.7284 46.5955C98.7284 46.6865 98.7502 46.7774 98.8158 46.8457C98.8814 46.9139 98.9689 46.9367 99.0564 46.9367C99.1876 46.9367 99.3188 46.9367 99.45 46.9367C99.4937 46.9367 99.5374 46.9367 99.5812 46.9139C99.6249 46.8912 99.6468 46.8684 99.6905 46.8457C99.7124 46.8229 99.7342 46.7774 99.7561 46.7319C99.778 46.6865 99.778 46.641 99.778 46.5955C99.778 46.5045 99.7561 46.4135 99.6905 46.3453C99.6249 46.277 99.5374 46.2543 99.45 46.2543Z" fill="black"/>
<path d="M67.5463 78.9876C67.1746 78.7829 67.5026 78.1915 67.8743 78.3962C70.7607 79.9885 74.2157 80.4434 77.4082 79.7838C77.8237 79.6928 77.9986 80.3524 77.5831 80.4434C74.2157 81.1486 70.6077 80.6482 67.5463 78.9876ZM118.102 123.322C118.015 124.778 117.621 126.188 116.9 127.439C116.2 128.622 115.238 129.6 114.144 130.351C111.52 132.171 108.262 132.83 105.179 133.081C103.342 133.24 101.484 133.217 99.6467 133.103C98.6627 133.035 97.6787 132.944 96.6947 132.808C95.6451 132.671 94.6392 132.467 93.6115 132.285C91.3592 131.898 89.1069 132.148 86.8547 132.33C84.7992 132.489 82.7656 132.512 80.7538 131.989C79.8136 133.24 78.7421 134.355 77.5394 135.333C76.9709 135.788 76.4023 136.22 75.7901 136.629C75.1122 137.084 74.4125 137.471 73.7565 137.926C72.5319 138.79 71.0887 139.336 69.6018 139.473C66.6935 139.723 63.9164 138.222 62.1233 135.879C61.9921 135.697 61.8391 135.515 61.7079 135.31C61.686 135.31 61.6423 135.287 61.5985 135.264C60.0241 134.264 58.2311 133.718 56.438 133.331C53.0705 132.58 49.5718 132.33 46.2918 131.17C44.7611 130.624 43.0555 129.851 42.0278 128.463C41.7654 128.122 41.5904 127.735 41.4811 127.326C41.4592 127.326 41.4374 127.303 41.4155 127.303C40.4534 126.734 39.3382 126.598 38.2448 126.507C36.5174 126.37 34.44 126.37 33.0624 125.074C32.144 124.209 31.8816 122.662 32.6688 121.707C31.8597 121.298 31.16 120.547 31.0069 119.592C30.832 118.568 31.2912 117.59 32.0347 116.953C31.6629 116.657 31.4005 116.248 31.2037 115.793C30.9195 115.133 30.7008 114.382 30.5915 113.677C30.4821 112.949 30.5477 112.199 30.9851 111.585C31.3349 111.107 31.816 110.788 32.3845 110.697C30.4384 104.692 32.6907 98.2546 35.4022 92.8635C36.2331 91.2257 37.1296 89.6106 38.048 88.0183C38.9227 86.517 39.7974 85.0156 40.7376 83.5598C42.4651 80.9211 44.4113 78.4189 46.5323 76.1442C51.0369 71.299 55.9132 67.5685 61.358 63.9744C60.8332 63.3829 60.4396 62.6323 60.702 61.8134C61.0081 60.8352 62.0796 60.3348 62.998 60.2893C63.0636 60.2893 63.1292 60.2893 63.173 60.2893C63.2167 60.1528 63.2604 59.9936 63.3042 59.8571C64.1351 57.0819 64.9223 54.284 65.6658 51.4861C66.0375 50.1213 66.4092 48.7564 66.7591 47.3688C66.2124 47.0276 65.6658 46.7092 65.1191 46.368C63.326 45.2761 61.5329 44.1615 59.7399 43.0469C59.5212 42.9104 59.5431 42.5919 59.7399 42.4554C61.0519 41.5 62.3639 40.5219 63.6759 39.5438C66.125 37.724 68.5522 35.8587 71.0013 34.0389C72.1821 33.1518 73.3629 32.1964 74.653 31.514C75.4184 31.1045 76.2274 30.8088 77.0584 30.6268C76.5336 30.3311 75.9869 29.9444 75.4839 29.3985C74.1938 27.9881 73.6909 23.5296 76.4461 21.3687C78.4797 27.4649 82.6344 24.7125 86.9421 28.6478C90.2659 31.7187 88.0355 39.1571 85.324 42.2734C86.4829 42.5237 87.5763 43.2743 88.1448 44.3662C89.1069 46.186 88.604 48.6882 86.9859 49.9165C86.2861 50.4625 85.4115 50.7355 84.5368 50.7355C84.3181 50.7355 84.1213 50.7127 83.9026 50.6899C84.0994 51.6681 84.3181 52.6235 84.5368 53.6016C84.8429 54.9437 85.1709 56.3085 85.4771 57.6506C85.8269 57.4004 86.1768 57.1502 86.5485 56.9C87.5763 56.2175 88.604 55.5579 89.6973 54.9892C90.244 54.6935 90.7907 54.3978 91.3811 54.193C91.9715 53.9883 92.5838 53.9656 93.196 53.9883C93.7208 54.011 94.355 54.011 94.7923 54.3523C95.1859 54.6935 95.2296 55.2621 95.011 55.7171C94.7704 56.2403 94.2456 56.5815 93.8083 56.9227C93.2398 57.3322 92.6712 57.7416 92.1027 58.1511C90.9875 58.97 89.8504 59.7661 88.7352 60.585C87.7949 61.2674 86.8547 61.9499 86.0675 62.837C86.1987 63.0872 86.2861 63.3375 86.3299 63.6104C86.4173 63.5877 86.5048 63.5877 86.5923 63.6332C87.3576 64.0654 88.1011 64.4976 88.8664 64.9525C91.8622 66.7723 94.7704 68.7968 97.4819 71.0715C100.193 73.3235 102.708 75.8257 104.938 78.6009C107.235 81.4443 109.224 84.5152 110.843 87.8136C112.592 91.3849 113.926 95.1609 114.844 99.0507C115.347 101.166 115.741 103.327 116.025 105.511C116.309 107.649 116.353 109.787 116.397 111.948C116.44 113.905 116.615 115.838 117.14 117.726C117.315 118.318 117.556 118.909 117.709 119.523C117.818 119.955 117.884 120.41 117.927 120.865C118.102 121.662 118.146 122.48 118.102 123.322ZM65.0535 56.354C64.6818 57.6961 64.2882 59.0382 63.8946 60.3575C65.8188 60.7215 67.1746 62.7005 68.7927 63.7242C70.5421 64.8388 72.7943 65.6577 74.8498 65.2027C76.0087 64.9525 76.9928 64.1791 77.9549 63.4967C78.9389 62.7915 79.901 62.0408 80.8632 61.2902C82.2408 60.2211 83.5965 59.1292 84.996 58.1056C84.4274 55.5806 83.8152 53.0784 83.2904 50.5535C82.6563 50.3487 82.0877 50.0075 81.6285 49.5071C81.4973 49.3706 81.4973 49.1659 81.6285 49.0294C81.7597 48.8929 81.9565 48.8929 82.0877 49.0294C83.2467 50.2578 85.3459 50.4397 86.6797 49.3934C88.0136 48.3697 88.4509 46.2315 87.6419 44.7074C86.8328 43.2061 84.8648 42.4554 83.3123 43.0923C83.1373 43.1606 82.9624 43.0696 82.8968 42.8876C82.8312 42.7057 82.9187 42.5237 83.0936 42.4554C83.2248 42.4099 83.356 42.3644 83.5091 42.3189L82.8093 42.1142C80.7538 39.7485 81.869 37.3145 81.7378 35.2218C81.5629 32.1281 80.076 31.8097 78.3266 31.15C76.8834 31.1955 75.5277 31.7642 74.3031 32.5148C73.0567 33.2882 71.8978 34.2436 70.6951 35.1308C69.4924 36.0407 68.2898 36.9278 67.0871 37.8377C64.9223 39.4755 62.7575 41.0906 60.5708 42.7056C60.6364 42.7511 60.702 42.7739 60.7457 42.8194C62.9324 44.1842 65.141 45.5491 67.3495 46.8912C67.4807 46.9594 67.5463 47.1414 67.5026 47.2778C67.3714 47.801 67.2402 48.3015 67.0871 48.8247C66.4311 51.3496 65.7532 53.8518 65.0535 56.354ZM61.861 63.5422C62.2546 63.9744 62.7356 64.3156 63.1948 64.6795C63.6103 64.998 63.982 65.362 64.3537 65.7487C66.3874 68.0007 67.1527 71.0488 68.574 73.6875C69.9735 73.1415 71.5916 73.5965 72.9911 73.9377C73.9751 74.1879 74.981 74.4154 75.965 74.6656C76.8616 74.8931 77.8018 75.0523 78.6765 75.3708C79.2232 75.5755 79.8136 75.894 80.0541 76.4627C81.1037 75.53 81.7816 74.1652 82.8531 73.2325C83.5091 72.6411 84.3837 72.1862 84.8648 71.4355C85.1709 70.9806 85.1928 70.3664 84.7773 70.0934C84.7117 70.1389 84.668 70.1844 84.6024 70.2299C84.4493 70.3664 84.2962 70.5029 84.1432 70.6394C83.837 70.9351 83.5747 71.2308 83.2904 71.5492C83.1811 71.6857 82.9405 71.663 82.8312 71.5492C82.7 71.4128 82.7218 71.208 82.8312 71.0715C83.2685 70.5483 83.7496 70.0707 84.2525 69.6385C84.2525 69.5247 84.2963 69.3882 84.4056 69.3427C84.8867 69.138 85.3021 68.7286 85.4115 68.1826C85.5208 67.7049 85.3459 67.25 85.1053 66.8405C84.5586 67.3637 84.0338 67.8869 83.4872 68.4101C83.356 68.5466 83.1592 68.5466 83.028 68.4101C82.8968 68.2964 82.8968 68.0462 83.028 67.9324C83.6184 67.3637 84.2088 66.7951 84.7992 66.2036C84.7992 66.1354 84.8429 66.0444 84.8867 65.9989C85.6083 65.3392 86.0237 64.3383 85.6738 63.4284C85.1928 63.9516 84.6899 64.4521 84.2088 64.9753C84.0776 65.1117 83.8808 65.089 83.7496 64.9753C83.6184 64.8388 83.6184 64.6113 83.7496 64.4976C84.3181 63.9061 84.8648 63.3147 85.4333 62.7233C85.4552 62.6778 85.4771 62.6323 85.4989 62.5868C85.8707 62.1319 86.2861 61.7451 86.7453 61.3584C87.6856 60.5623 88.7133 59.8571 89.7192 59.152C90.7907 58.3785 91.8622 57.6051 92.9336 56.8317C93.4147 56.4905 93.9614 56.172 94.355 55.7171C94.4862 55.5579 94.6392 55.3077 94.5736 55.0802C94.508 54.8755 94.2456 54.83 94.0488 54.7845C93.4803 54.6935 92.868 54.648 92.2995 54.739C91.6872 54.83 91.1405 55.1029 90.5939 55.3759C86.4829 57.4914 82.9843 60.6078 79.2669 63.383C78.3266 64.0881 77.3645 64.8388 76.3368 65.3847C75.4183 65.8624 74.3906 66.0444 73.3629 65.9989C71.3949 65.8852 69.405 65.0662 67.7868 63.8606C66.8684 63.1782 66.1031 62.2456 65.141 61.6314C64.2663 61.0627 63.173 60.7443 62.189 61.1992C61.8172 61.3812 61.4236 61.6769 61.3361 62.1091C61.2268 62.6323 61.533 63.1782 61.861 63.5422ZM43.2086 123.595C43.2523 123.55 43.2961 123.527 43.3398 123.504C43.1211 123.208 42.9243 122.913 42.7275 122.617C42.2683 121.935 41.7873 121.275 41.1969 120.683C40.6283 120.115 39.9723 119.637 39.3163 119.182C38.0043 118.272 36.6048 117.431 35.5552 116.202C34.4182 114.883 33.456 113.382 32.8 111.744C32.7344 111.607 32.6907 111.471 32.6469 111.334H32.6251C32.1221 111.357 31.6848 111.675 31.4443 112.13C31.16 112.676 31.2037 113.313 31.3568 113.882C31.5973 114.883 31.8816 116.134 32.8437 116.634C33.0624 116.748 33.0405 117.112 32.8437 117.226C32.1003 117.658 31.5317 118.545 31.7067 119.478C31.8816 120.365 32.6251 121.025 33.4342 121.252C33.6966 121.343 33.7621 121.73 33.5216 121.866C32.9093 122.253 32.7782 122.958 32.9968 123.641C33.4779 125.21 35.424 125.551 36.7798 125.688C38.3542 125.847 40.016 125.802 41.4593 126.529C41.4811 126.325 41.503 126.143 41.5686 125.938C41.831 125.028 42.5307 124.277 43.2086 123.595ZM60.8113 134.082C60.3521 133.422 59.8929 132.785 59.3681 132.171C58.6684 131.329 57.9249 130.533 57.094 129.851C55.7601 128.759 54.2294 128.122 52.6113 127.667C50.4465 127.053 48.2598 126.507 46.1387 125.779C45.767 125.642 45.3734 125.551 45.0454 125.301C44.7393 125.074 44.455 124.823 44.1926 124.55C44.0395 124.391 43.8865 124.209 43.7334 124.027C43.7115 124.05 43.7115 124.073 43.6897 124.096C43.0118 124.801 42.0934 125.665 42.0934 126.734C42.0715 127.712 42.8587 128.508 43.5803 129.032C44.8486 129.964 46.3355 130.533 47.8443 130.942C49.4625 131.397 51.1025 131.67 52.7425 131.966C55.4102 132.421 58.2967 132.83 60.8113 134.082ZM80.0541 131.83C79.6605 131.693 79.8354 131.056 80.229 131.17C80.3165 131.193 80.3821 131.215 80.4696 131.238C80.4696 131.238 80.4696 131.238 80.4696 131.215C81.9565 129.1 82.9405 126.666 83.4216 124.096C84.4275 118.613 83.1155 112.858 81.0162 107.831C80.4477 106.466 79.7042 105.17 79.2232 103.759C78.8077 102.531 78.6109 101.234 78.6328 99.9606C78.6546 97.5266 79.42 95.2064 79.9666 92.8635C80.5133 90.475 80.7538 88.0638 79.9229 85.7208C79.6824 85.0384 79.3544 84.3787 78.9826 83.7645C78.764 83.4006 78.5453 83.0594 78.3048 82.7409C78.0642 82.3997 77.6925 82.0812 77.5176 81.6945C77.3645 81.3761 77.2333 80.9666 77.1677 80.5572H77.2114C77.277 79.3971 78.5016 78.6691 79.1576 77.8502C79.3981 77.5545 79.6605 77.1451 79.4856 76.7129C79.245 76.1214 78.4359 75.9167 77.9111 75.7802C76.0962 75.3025 74.2375 74.8931 72.4226 74.4381C71.7229 74.2789 71.0231 74.1197 70.3015 74.0969C69.6893 74.0742 69.0332 74.1197 68.4866 74.4609C67.8524 74.8476 67.6775 75.53 67.6775 76.2352C67.6775 77.0086 67.8087 77.7365 67.6994 78.5099C67.6338 78.9421 66.9996 78.7601 67.0652 78.3279C67.2183 77.418 66.934 76.4854 67.0652 75.5528C67.1527 74.8931 67.5026 74.3471 68.0055 73.9832C67.2402 72.5956 66.6716 71.0943 66.0156 69.6385C65.6002 68.7058 65.1191 67.8187 64.5287 66.977C63.8727 66.0671 63.0418 65.3847 62.189 64.7023C62.1015 64.634 61.9921 64.5431 61.9047 64.4521C60.5052 65.3847 59.5431 66.0899 58.1655 67.0907C53.0049 70.7758 48.1505 74.9386 44.1926 79.9657C42.159 82.5362 40.4753 85.3113 38.8134 88.132C37.0203 91.1802 35.2928 94.3193 34.0464 97.6631C32.9093 100.666 32.144 103.873 32.3845 107.126C32.6469 110.447 34.0901 113.677 36.3424 116.043C37.4576 117.226 38.879 118.022 40.191 118.955C40.8251 119.41 41.4593 119.933 42.0059 120.524C42.5307 121.093 42.9681 121.753 43.4273 122.412C43.8865 123.072 44.3457 123.732 44.9361 124.277C45.2422 124.573 45.5702 124.823 45.9857 124.96C46.3137 125.074 46.6417 125.187 46.9697 125.301C48.1067 125.688 49.2657 126.029 50.4246 126.325C52.1302 126.78 53.8796 127.166 55.4758 127.963C57.2033 128.804 58.6247 130.169 59.8711 131.67C60.8332 132.808 61.686 134.036 62.5388 135.264C63.3916 136.516 64.5943 137.516 65.95 138.153C67.2183 138.745 68.6396 138.95 70.0172 138.745C70.717 138.631 71.3949 138.426 72.0509 138.153C72.7725 137.812 73.4066 137.312 74.0845 136.925C76.3149 135.628 78.4141 133.945 80.0541 131.83ZM117.293 120.479C117.118 119.387 116.681 118.363 116.419 117.294C116.178 116.339 116.025 115.361 115.937 114.382C115.763 112.54 115.828 110.675 115.741 108.809C115.544 104.487 114.669 100.143 113.445 96.0253C112.351 92.3858 110.864 88.8599 109.006 85.5616C107.234 82.4679 105.135 79.579 102.774 76.9631C100.456 74.3926 97.8755 72.0724 95.1422 69.9797C92.387 67.8642 89.4787 65.9989 86.4829 64.2928C86.4173 65.0208 86.0893 65.7259 85.5864 66.2719C85.98 66.886 86.2643 67.5912 86.0893 68.3419C85.98 68.8423 85.6739 69.2745 85.2803 69.593C85.6083 69.8887 85.8051 70.3436 85.7613 70.8441C85.6957 71.5947 85.2147 72.1634 84.668 72.6184C84.0557 73.1415 83.356 73.5965 82.8093 74.2107C81.9128 75.2115 81.2349 76.4172 80.1853 77.2361C80.1416 77.5773 79.9885 77.8957 79.7917 78.1914C79.4418 78.6691 79.0045 79.0558 78.589 79.4653C78.2829 79.7838 77.8893 80.1705 77.8674 80.6482C77.9112 80.9211 77.9767 81.2396 78.108 81.4671C78.2829 81.7628 78.5672 82.0357 78.7858 82.3314C80.4258 84.5607 81.3224 87.1994 81.1037 90.0428C80.9288 92.454 80.1197 94.7515 79.6386 97.0945C79.1138 99.6649 79.1794 102.258 80.2946 104.669C80.9288 106.057 81.6066 107.422 82.1533 108.855C82.6781 110.242 83.1373 111.653 83.5091 113.086C84.8211 118.295 84.9304 123.982 82.6344 128.918C82.2189 129.805 81.7378 130.647 81.1912 131.443C81.9784 131.648 82.8093 131.761 83.6184 131.784C85.7832 131.898 87.9261 131.534 90.091 131.443C91.2062 131.397 92.3432 131.443 93.4366 131.602C94.4862 131.761 95.5139 131.989 96.5635 132.125C100.172 132.603 103.867 132.739 107.475 132.125C110.274 131.648 113.226 130.692 115.26 128.554C117.271 126.393 117.752 123.39 117.293 120.479ZM97.1758 109.969C97.7006 110.47 97.46 111.175 97.0446 111.653C96.5635 112.221 95.7982 112.699 95.0547 112.563C94.4643 112.472 94.0926 111.971 93.9614 111.403C93.9395 111.312 93.9176 111.198 93.8739 111.107C93.4803 111.448 93.1523 111.857 92.7805 112.244C92.2995 112.745 91.7747 113.154 91.1405 113.45C89.916 114.041 88.5165 114.269 87.1608 114.064C86.7453 113.996 86.9203 113.336 87.3357 113.404C87.6856 113.45 88.0136 113.473 88.3635 113.45C89.8067 113.382 91.228 112.858 92.2776 111.789C92.715 111.334 93.1304 110.857 93.6115 110.447C92.868 108.764 91.403 107.513 90.5064 105.92C89.9816 104.988 89.6973 103.964 89.8941 102.872C90.0035 102.213 90.3315 101.644 90.6158 101.075C90.9 100.552 91.3811 99.7786 91.1405 99.1417C90.9 98.482 89.9816 98.3683 89.4349 98.0953C88.8227 97.7996 88.276 97.3674 87.7949 96.8897C86.8547 95.9116 86.1987 94.615 86.0019 93.2502C85.9362 92.818 86.5704 92.636 86.636 93.0682C86.8328 94.5468 87.5763 95.8889 88.6915 96.8215C89.2381 97.2764 89.8504 97.5722 90.5064 97.8224C91.2062 98.0954 91.7966 98.5503 91.8403 99.3919C91.9059 100.689 90.7907 101.712 90.5283 102.941C90.3096 103.896 90.6157 104.829 91.0968 105.67C91.9934 107.217 93.3928 108.445 94.1582 110.083C94.6174 109.833 95.1203 109.696 95.6232 109.628C96.148 109.56 96.7822 109.605 97.1758 109.969ZM95.8638 110.288C95.3827 110.311 94.8579 110.447 94.4206 110.697C94.4424 110.743 94.4424 110.766 94.4643 110.811C94.5955 111.221 94.6392 111.812 95.1422 111.903C95.5139 111.971 95.9075 111.744 96.1918 111.516C96.4323 111.334 96.6947 111.084 96.7822 110.788C96.9571 110.288 96.1481 110.265 95.8638 110.288ZM76.7741 36.3591C76.2493 36.9733 75.8557 37.6785 75.5933 38.4519C75.5277 38.6111 75.6589 38.8386 75.8119 38.8613C75.9869 38.9068 76.1618 38.7931 76.2056 38.6339C76.2274 38.5429 76.2712 38.4746 76.293 38.3837C76.293 38.3609 76.3149 38.3381 76.3149 38.3154V38.2927C76.3368 38.2472 76.3586 38.2017 76.3586 38.1789C76.4242 38.0197 76.5117 37.8377 76.5991 37.6785C76.6866 37.5193 76.7741 37.3828 76.8834 37.2235C76.9053 37.1781 76.9272 37.1553 76.949 37.1098C76.949 37.1098 76.949 37.1098 76.949 37.0871C76.949 37.0871 76.949 37.087 76.949 37.0643C76.9709 37.0415 76.9709 37.0188 76.9928 37.0188C77.0584 36.9506 77.1021 36.8823 77.1677 36.7913C77.277 36.6549 77.2989 36.4274 77.1677 36.3137C77.1021 36.2454 76.8834 36.2227 76.7741 36.3591ZM73.2535 38.6111C73.4285 38.7021 73.6034 38.6339 73.7127 38.4974C74.1282 37.8832 74.5437 37.269 74.9591 36.6549C75.0685 36.5184 74.981 36.2682 74.8498 36.1772C74.6749 36.0862 74.4999 36.1544 74.3906 36.2909C73.9751 36.9051 73.5597 37.5193 73.1442 38.1334C73.0349 38.2927 73.1005 38.5429 73.2535 38.6111ZM73.6034 34.5849C74.1501 34.7213 74.7186 34.8578 75.2653 34.9943C75.4402 35.0398 75.637 34.9488 75.6589 34.7668C75.7026 34.5848 75.6152 34.3801 75.4402 34.3574C74.8935 34.2209 74.325 34.0844 73.7783 33.9479C73.6034 33.9024 73.4066 33.9934 73.3847 34.1754C73.3191 34.3346 73.4285 34.5394 73.6034 34.5849ZM76.5336 34.0617C76.6866 34.1527 76.9053 34.1072 76.9928 33.9479C77.1458 33.6295 77.3645 33.3793 77.6706 33.22C77.933 33.0835 78.2173 33.0153 78.5016 33.129C78.5016 33.129 78.5672 33.1518 78.5672 33.1745C78.589 33.1973 78.6109 33.1973 78.6328 33.22C78.6546 33.22 78.6546 33.2428 78.6765 33.2428C78.6765 33.2428 78.6765 33.2428 78.6984 33.2655C78.7202 33.2883 78.764 33.311 78.7858 33.3565C78.7858 33.3565 78.8296 33.4247 78.8514 33.4247C78.8733 33.4475 78.8733 33.4702 78.8951 33.493C78.917 33.5385 78.9389 33.5612 78.9608 33.6067C78.9608 33.6295 78.9826 33.6522 78.9826 33.6522C79.0045 33.7204 79.0264 33.7887 79.0482 33.8569C79.0482 33.8569 79.0482 33.8569 79.0482 33.8797C79.0482 33.9024 79.0482 33.9024 79.0482 33.9252C79.0482 33.9707 79.0482 33.9934 79.0482 34.0389C79.0482 34.0389 79.0482 34.0389 79.0482 34.0617C79.0482 34.1072 79.0264 34.1299 79.0264 34.1754C79.0264 34.1754 79.0264 34.1754 79.0264 34.1981C79.0264 34.2209 79.0045 34.2209 79.0045 34.2437C79.0045 34.2664 78.9389 34.3574 78.9826 34.2891C78.8733 34.4256 78.8514 34.6303 78.9826 34.7668C79.092 34.8806 79.3325 34.9033 79.4418 34.7668C79.6605 34.4939 79.748 34.1527 79.7042 33.7887C79.6605 33.4475 79.5074 33.129 79.2888 32.9016C78.764 32.3329 77.9549 32.3329 77.3426 32.7196C76.9709 32.947 76.6647 33.2883 76.4898 33.675C76.3149 33.766 76.3586 33.9707 76.5336 34.0617ZM68.8146 59.0837C68.9239 59.2202 69.1644 59.1974 69.2738 59.0837C69.405 58.9472 69.3831 58.7425 69.2738 58.606C68.8364 58.0373 68.5303 57.3777 68.3554 56.6952C68.2242 56.1948 68.093 55.4669 68.3991 54.9892C68.7271 54.4887 69.3394 54.8982 69.5799 55.2849C69.7767 55.5806 69.8423 55.9446 69.9298 56.2858C70.0172 56.6497 70.1266 57.0137 70.2797 57.3777C70.4765 57.7644 71.0231 57.4232 70.8482 57.0364C70.5421 56.3995 70.5421 55.6716 70.2141 55.0574C69.9298 54.5343 69.405 54.0565 68.7927 54.0793C68.2023 54.102 67.7869 54.5797 67.6557 55.1484C67.5026 55.7626 67.6119 56.4223 67.7868 57.0364C67.9836 57.7644 68.3335 58.4695 68.8146 59.0837ZM66.278 78.8056C62.1889 80.5344 59.2588 84.6289 58.5591 89.1329C58.3841 90.2475 58.3404 91.4076 58.4497 92.545C58.5153 93.1137 58.6028 93.6824 58.734 94.2283C58.9089 94.979 59.1495 95.7296 59.2588 96.4803C59.4556 97.7769 59.1276 98.9597 58.406 100.006C57.7281 101.007 56.8097 101.849 55.9132 102.645C54.0108 104.396 51.6273 107.149 52.9393 109.992C53.1142 110.379 53.6828 110.038 53.5078 109.651C52.4145 107.263 54.6012 104.806 56.1756 103.327C57.8156 101.803 59.7399 100.143 59.9585 97.7086C60.0897 96.2756 59.5212 94.888 59.2369 93.5004C59.0183 92.4313 58.9745 91.3394 59.062 90.2475C59.2369 88.0638 59.9585 85.9255 61.1175 84.1057C62.4076 82.0585 64.2444 80.3752 66.4311 79.4425C66.8247 79.2833 66.6716 78.6236 66.278 78.8056ZM83.3778 46.6864C83.3997 46.6637 83.4216 46.6409 83.4434 46.5954C83.4872 46.5499 83.509 46.5044 83.5528 46.4589C83.6403 46.368 83.7058 46.277 83.7933 46.2087C83.9682 46.0495 84.0995 45.9358 84.2963 45.7993C84.6899 45.549 85.0397 45.3671 85.4771 45.2533C85.652 45.2078 85.7613 45.0031 85.6957 44.8439C85.652 44.6619 85.4552 44.5709 85.3021 44.6164C84.2963 44.8666 83.4216 45.5036 82.8093 46.3452C82.7 46.4817 82.7874 46.7319 82.9186 46.8229C83.0936 46.9139 83.2685 46.8229 83.3778 46.6864Z" fill="black"/>
</svg>
