<svg width="15" height="14" viewBox="0 0 15 14" fill="none" xmlns="http://www.w3.org/2000/svg">
<path fill-rule="evenodd" clip-rule="evenodd" d="M11.5045 10.203C12.3637 9.16486 12.88 7.83267 12.88 6.37988C12.88 3.06617 10.1937 0.379883 6.88 0.379883C3.5663 0.379883 0.880005 3.06617 0.880005 6.37988C0.880005 9.69359 3.5663 12.3799 6.88 12.3799C8.33281 12.3799 9.66502 11.8635 10.7031 11.0044L13.146 13.4472C13.3673 13.6685 13.7261 13.6685 13.9474 13.4472C14.1687 13.2259 14.1687 12.8671 13.9474 12.6458L11.5045 10.203ZM6.88 11.2679C4.18045 11.2679 1.99203 9.07944 1.99203 6.37988C1.99203 3.68033 4.18045 1.49191 6.88 1.49191C9.57956 1.49191 11.768 3.68033 11.768 6.37988C11.768 9.07944 9.57956 11.2679 6.88 11.2679Z" fill="#636674"/>
</svg>
